# xmcd
#
# Track frame offsets: 
#        150
#        10542
#        21495
#        32521
#        44386
#        55675
#        64065
#        73381
#        84400
#        93931
#        110956
#        124181
#        134049
#        147134
#        161319
#        170480
#        184837
#        195934
#
# Disc length: 2747 seconds
#
# Revision: 0
# Processed by: cddbd v1.5.2PL0 Copyright (c) Steve Scherf et al.
# Submitted via: ExactAudioCopy v1.0b1
#
DISCID=f80ab912
DTITLE=Mickey Murray - Shout Bamalama
DYEAR=2004
DGENRE=Soul
TTITLE0=Shout Bamalama
TTITLE1=Lonely Room
TTITLE2=Are You Ready
TTITLE3=Got You on My Mind
TTITLE4=I'm Coming Back to You
TTITLE5=Try to Hide from Love
TTITLE6=How Many Breaks Can One Heart Take
TTITLE7=Pledging My Love
TTITLE8=East of Nowhere
TTITLE9=Treat Him Right
TTITLE10=Am I That Easy to Forget
TTITLE11=Hit Record
TTITLE12=Flat Foot Sam
TTITLE13=Sticky Sue
TTITLE14=Mama's Got the Wagon
TTITLE15=Jodie
TTITLE16=After What I've Been Used To
TTITLE17=The Pig and the Pussycat
EXTD=
EXTT0=
EXTT1=
EXTT2=
EXTT3=
EXTT4=
EXTT5=
EXTT6=
EXTT7=
EXTT8=
EXTT9=
EXTT10=
EXTT11=
EXTT12=
EXTT13=
EXTT14=
EXTT15=
EXTT16=
EXTT17=
PLAYORDER=
